<!DOCTYPE svg PUBLIC "-//W3C//DTD SVG 20010904//EN" "http://www.w3.org/TR/2001/REC-SVG-20010904/DTD/svg10.dtd">
<svg version="1.0" xmlns="http://www.w3.org/2000/svg" width="512px" height="512px" viewBox="0 0 5120 5120" preserveAspectRatio="xMidYMid meet">
<g id="layer101" fill="rgb(255,255,255)" stroke="none">
 <path d="M1774 5110 c-33 -13 -64 -59 -64 -94 0 -36 14 -60 82 -134 93 -103 171 -242 212 -379 l7 -22 -883 -3 c-881 -3 -883 -3 -930 -25 -66 -30 -133 -96 -165 -162 l-28 -56 -3 -1539 c-2 -1337 0 -1547 13 -1597 25 -98 76 -162 169 -212 l41 -22 2335 0 2335 0 41 22 c93 50 144 114 169 211 13 51 15 262 13 1593 l-3 1534 -33 67 c-37 76 -82 120 -162 157 l-55 26 -878 3 -879 3 7 27 c27 107 125 277 219 380 80 87 90 115 61 172 -32 62 1 60 -837 59 -420 0 -773 -4 -784 -9z m1286 -232 c-46 -70 -130 -256 -147 -325 l-17 -73 -337 0 -338 0 -11 43 c-30 116 -73 220 -131 316 -22 34 -39 65 -39 67 0 2 234 4 521 4 l521 0 -22 -32z m1790 -623 c53 -27 60 -56 60 -245 l0 -170 -2350 0 -2350 0 0 170 c0 133 3 177 15 200 33 64 -150 59 2333 60 2004 0 2266 -2 2292 -15z m60 -1866 c0 -1152 -1 -1243 -17 -1270 -38 -63 141 -59 -2338 -59 -2167 0 -2259 0 -2289 18 -17 10 -37 29 -43 43 -10 19 -13 299 -13 1267 l0 1242 2350 0 2350 0 0 -1241z"/>
 <path d="M2362 3277 c-14 -15 -22 -36 -22 -60 0 -29 242 -1643 267 -1776 13 -74 90 -105 147 -60 19 15 26 30 26 56 0 53 -269 1803 -281 1824 -23 45 -102 53 -137 16z"/>
 <path d="M1862 2928 c-297 -308 -522 -554 -527 -579 -4 -16 -1 -39 7 -52 25 -48 598 -647 625 -653 35 -9 72 6 96 38 39 52 24 73 -255 369 -142 150 -258 276 -258 279 0 5 92 105 388 418 120 128 142 156 142 182 0 45 -47 90 -93 90 -32 0 -46 -10 -125 -92z"/>
 <path d="M3065 2994 c-17 -18 -25 -39 -25 -61 0 -30 17 -52 143 -185 318 -338 387 -413 385 -420 -2 -4 -100 -109 -218 -234 -297 -314 -310 -329 -310 -365 0 -65 84 -111 136 -75 33 23 588 615 602 643 12 21 12 31 0 59 -12 31 -556 617 -602 650 -33 23 -84 18 -111 -12z"/>
 </g>

</svg>