<svg fill="rgb(255,255,255)" id="light" enable-background="new 0 0 24 24" height="512" viewBox="0 0 24 24" width="512" xmlns="http://www.w3.org/2000/svg"><path d="m22.5 21h-21c-.827 0-1.5-.673-1.5-1.5v-14c0-.827.673-1.5 1.5-1.5h4c.276 0 .5.224.5.5s-.224.5-.5.5h-4c-.276 0-.5.224-.5.5v14c0 .276.224.5.5.5h21c.276 0 .5-.224.5-.5v-14c0-.276-.224-.5-.5-.5h-1c-.276 0-.5-.224-.5-.5s.224-.5.5-.5h1c.827 0 1.5.673 1.5 1.5v14c0 .827-.673 1.5-1.5 1.5z"/><path d="m15.5 24h-7c-.202 0-.385-.122-.462-.309-.078-.187-.035-.402.108-.545 1.316-1.316 1.333-2.59 1.333-2.644.001-.275.225-.502.501-.502h4.02c.275 0 .499.222.5.497.001.063.04 1.336 1.354 2.649.143.143.186.358.108.545-.077.187-.26.309-.462.309zm-5.929-1h4.857c-.56-.801-.782-1.537-.87-2h-3.13c-.085.465-.301 1.2-.857 2zm4.929-2.5h.01z"/><path d="m23.5 18h-23c-.276 0-.5-.224-.5-.5s.224-.5.5-.5h23c.276 0 .5.224.5.5s-.224.5-.5.5z"/><path d="m12.758 11.838c-.128 0-.256-.049-.354-.146l-3.596-3.597c-.188-.188-.196-.491-.018-.688l2.946-3.271c2.093-2.417 5.413-4.083 8.255-4.136.136-.009.267.05.363.146s.149.227.146.363c-.053 2.842-1.719 6.162-4.144 8.261l-3.264 2.94c-.094.086-.214.128-.334.128zm-2.907-4.114 2.926 2.926 2.918-2.629c2.076-1.797 3.542-4.542 3.774-6.99-2.448.232-5.192 1.698-6.983 3.767z"/><path d="m14.104 14.21c-.045 0-.091-.006-.136-.019-.174-.049-.308-.188-.351-.365l-.707-2.95c-.064-.268.102-.538.37-.603.272-.063.539.102.603.37l.469 1.959c.869-1.359 1.042-3.098 1.06-4.115.005-.276.208-.511.509-.491.276.004.496.233.491.508-.042 2.366-.736 4.34-1.955 5.559-.095.096-.223.147-.353.147z"/><path d="m9.741 7.603c-.039 0-.078-.004-.117-.014l-2.95-.707c-.176-.042-.316-.175-.365-.35-.049-.174 0-.361.127-.489 1.219-1.219 3.193-1.913 5.559-1.955.289.002.504.215.509.491s-.215.504-.491.509c-1.018.018-2.756.191-4.115 1.06l1.959.469c.268.064.434.334.37.603-.056.229-.26.383-.486.383z"/><path d="m6 15c-.131 0-.258-.051-.354-.146-.13-.13-.178-.321-.125-.497.165-.552 1.023-3.338 1.695-4.01.809-.81 2.126-.811 2.938 0 .81.81.81 2.128 0 2.938-.671.671-3.458 1.53-4.01 1.695-.048.013-.096.02-.144.02zm2.685-4.261c-.276 0-.552.105-.762.315-.284.284-.772 1.536-1.154 2.677 1.141-.382 2.394-.871 2.677-1.154.42-.42.42-1.104 0-1.523-.21-.21-.486-.315-.761-.315z"/></svg>