<!DOCTYPE svg PUBLIC "-//W3C//DTD SVG 20010904//EN" "http://www.w3.org/TR/2001/REC-SVG-20010904/DTD/svg10.dtd">
<svg version="1.0" xmlns="http://www.w3.org/2000/svg" width="512px" height="512px" viewBox="0 0 5120 5120" preserveAspectRatio="xMidYMid meet">
<g id="layer101" fill="rgb(255,255,255)" stroke="none">
 <path d="M143 5094 c-59 -28 -106 -82 -128 -144 -22 -63 -22 -3768 0 -3854 25 -96 77 -160 169 -209 l41 -22 2335 0 2335 0 41 22 c93 50 144 114 169 211 13 51 15 262 13 1593 l-3 1534 -33 67 c-37 76 -82 120 -162 157 l-55 26 -878 3 -879 3 7 27 c27 107 125 277 219 380 80 87 90 115 61 172 -33 63 2 61 -851 58 l-776 -3 -29 -33 c-51 -57 -41 -96 53 -200 93 -104 171 -242 213 -379 l6 -23 -205 0 -206 0 0 195 c0 106 -5 217 -11 245 -15 70 -64 138 -124 171 l-50 28 -610 0 -610 0 -52 -25z m1268 -153 l29 -29 0 -146 0 -146 -640 0 -640 0 0 141 c0 77 5 149 10 159 26 49 26 49 638 50 l574 0 29 -29z m1649 -63 c-46 -70 -130 -256 -147 -325 l-17 -73 -337 0 -338 0 -11 43 c-30 116 -73 220 -131 316 -22 34 -39 65 -39 67 0 2 234 4 521 4 l521 0 -22 -32z m-1622 -1145 l-3 -738 -637 -3 -638 -2 0 740 0 740 640 0 640 0 -2 -737z m3412 522 c53 -27 60 -56 60 -245 l0 -170 -1655 0 -1655 0 0 215 0 215 1610 0 c1420 0 1614 -2 1640 -15z m60 -1866 c0 -1152 -1 -1243 -17 -1270 -38 -63 141 -59 -2338 -59 -2167 0 -2259 0 -2289 18 -17 10 -37 29 -43 43 -10 18 -13 180 -13 687 l0 662 598 0 597 0 50 24 c59 28 97 66 122 121 16 36 18 83 21 528 l3 487 1654 0 1655 0 0 -1241z m-3470 371 c0 -72 -3 -84 -24 -105 -14 -14 -41 -26 -67 -30 -24 -3 -290 -5 -591 -3 l-546 3 -26 24 c-24 23 -26 31 -26 108 l0 83 640 0 640 0 0 -80z"/>
 <path d="M645 4830 c-28 -31 -24 -79 10 -107 27 -24 32 -24 162 -21 128 3 136 4 154 27 26 32 24 73 -4 99 -22 20 -33 22 -164 22 -128 0 -142 -2 -158 -20z"/>
 </g>

</svg>